<svg xmlns="http://www.w3.org/2000/svg" width="1920" height="123.937" viewBox="0 0 1920 123.937">
  <g id="predel_hnedy" transform="translate(-297.44 -428.763)">
    <path id="Path_36" data-name="Path 36" d="M729.545,480.6h0l-.038.014Z" transform="translate(179.086 21.353)" fill="#53dc2e"/>
    <path id="Path_37" data-name="Path 37" d="M1289.53,454.26c-.028-.065-.044-.174-.089-.188a3.43,3.43,0,0,0-.455-.082c.031.1.045.288.093.3A1.629,1.629,0,0,0,1289.53,454.26Z" transform="translate(410.987 10.393)" fill="#53dc2e"/>
    <path id="Path_38" data-name="Path 38" d="M561.209,460.277a4.559,4.559,0,0,0-.5-.236c-.078-.027-.181.021-.272.035l.354.3Z" transform="translate(108.35 12.883)" fill="#53dc2e"/>
    <path id="Path_39" data-name="Path 39" d="M557.456,458.916l-2.333-.491-.073.273,2.271.714Z" transform="translate(106.131 12.22)" fill="#53dc2e"/>
    <path id="Path_40" data-name="Path 40" d="M461.919,450.314l-.3-.08-.164.161c.081.059.188.182.236.162C461.785,450.519,461.846,450.4,461.919,450.314Z" transform="translate(67.572 8.846)" fill="#53dc2e"/>
    <path id="Path_41" data-name="Path 41" d="M587.685,468.773c.079.041.2,0,.3-.01a1.1,1.1,0,0,0-.23-.188,1.292,1.292,0,0,0-.308-.062C587.528,468.6,587.588,468.723,587.685,468.773Z" transform="translate(120.207 16.376)" fill="#53dc2e"/>
    <path id="Path_42" data-name="Path 42" d="M575.011,464.539l-1.131-.239-.023.22L575,464.7Z" transform="translate(114.572 14.641)" fill="#53dc2e"/>
    <path id="Path_43" data-name="Path 43" d="M570.332,463l-.977-.254-.069.292.986.208Z" transform="translate(112.678 14)" fill="#53dc2e"/>
    <path id="Path_44" data-name="Path 44" d="M468.519,447.46c1.707,1.309,1.707,1.309,2.772.713Z" transform="translate(70.481 7.703)" fill="#53dc2e"/>
    <path id="Path_45" data-name="Path 45" d="M582.016,467.165l.006-.346-.27.023c0,.076-.031.185.007.222A.72.72,0,0,0,582.016,467.165Z" transform="translate(117.839 15.678)" fill="#53dc2e"/>
    <path id="Path_46" data-name="Path 46" d="M445.034,449.221c.018-.13-.1-.28-.155-.419a2.538,2.538,0,0,0-.4.405c-.021.031.175.208.273.316C444.851,449.423,445.019,449.333,445.034,449.221Z" transform="translate(60.576 8.256)" fill="#53dc2e"/>
    <path id="Path_47" data-name="Path 47" d="M346.668,449.853l-.05.166.15-.02Z" transform="translate(20.26 8.689)" fill="#53dc2e"/>
    <path id="Path_48" data-name="Path 48" d="M446.176,456.347a2.239,2.239,0,0,0-.617.007c-.064.018-.064.27-.092.414a3.578,3.578,0,0,0,.624.034C446.126,456.8,446.139,456.557,446.176,456.347Z" transform="translate(60.984 11.356)" fill="#53dc2e"/>
    <path id="Path_49" data-name="Path 49" d="M440.223,450.649a2.938,2.938,0,0,0,.544-.322l-.291-.425a2.8,2.8,0,0,0-.49.393C439.957,450.328,440.188,450.662,440.223,450.649Z" transform="translate(58.725 8.709)" fill="#53dc2e"/>
    <path id="Path_50" data-name="Path 50" d="M342.172,451l-.376.021.184.071Z" transform="translate(18.274 9.16)" fill="#53dc2e"/>
    <path id="Path_51" data-name="Path 51" d="M450.818,455.814a1.8,1.8,0,0,0,.193-.592,1.876,1.876,0,0,0-.679-.017c-.2.073-.359.289-.529.439.073.113.1.2.161.241A.565.565,0,0,0,450.818,455.814Z" transform="translate(62.771 10.881)" fill="#53dc2e"/>
    <path id="Path_52" data-name="Path 52" d="M447.879,456.566c.713-.134,1.406-.363,2.107-.559l-.1-.5c-.669-.031-1.34-.1-2.006-.076-.346.011-.7.219-.518.662C447.44,456.3,447.735,456.594,447.879,456.566Z" transform="translate(61.744 10.984)" fill="#53dc2e"/>
    <path id="Path_53" data-name="Path 53" d="M332.118,456.4l-.013.021h0c.017.011.035.017.052.027v-.112Z" transform="translate(14.281 11.359)" fill="#53dc2e"/>
    <path id="Path_54" data-name="Path 54" d="M331.748,456.289l.441.147c-.076-.147-.152-.3-.23-.442Z" transform="translate(14.134 11.219)" fill="#53dc2e"/>
    <path id="Path_55" data-name="Path 55" d="M321.68,456.893c.042.131.083.263.133.4l.008,0,.016.061.045-.023Z" transform="translate(9.986 11.589)" fill="#53dc2e"/>
    <path id="Path_56" data-name="Path 56" d="M322.826,459.1c1.4.7,2.382.148,2.715-1.452a4.008,4.008,0,0,1,.246-.644c1.5-.357,2.906.561,4.548.129a5.722,5.722,0,0,0-2.145-3.115c-.337.668-.565,1.243-1.185,1.045-.922-.3-1.567.335-2.338.535-.072,1.154-1.371,1.186-1.823,1.991-.126.222-.36.445-.352.661C322.5,458.551,322.617,459,322.826,459.1Z" transform="translate(10.321 10.407)" fill="#53dc2e"/>
    <path id="Path_57" data-name="Path 57" d="M332.176,456.345l-.116-.038.064.123.013-.021Z" transform="translate(14.263 11.348)" fill="#53dc2e"/>
    <path id="Path_58" data-name="Path 58" d="M297.624,509.108l-.155.113-.028-.141Z" transform="translate(0 33.089)" fill="#53dc2e"/>
    <path id="Path_59" data-name="Path 59" d="M339,451.9l-.03-.119-.928.236.031.119Z" transform="translate(16.728 9.482)" fill="#53dc2e"/>
    <path id="Path_60" data-name="Path 60" d="M332.132,454.358c.224-.035.4-.37.707-.682-.4-.2-.613-.407-.789-.378-.411.068-.882.253-.748.777C331.344,454.241,331.862,454.4,332.132,454.358Z" transform="translate(13.941 10.107)" fill="#53dc2e"/>
    <path id="Path_61" data-name="Path 61" d="M336.18,452.66a4.344,4.344,0,0,0,.438-.117c-.055-.073-.134-.219-.162-.209a2.4,2.4,0,0,0-.4.2C336.1,452.581,336.148,452.666,336.18,452.66Z" transform="translate(15.91 9.711)" fill="#53dc2e"/>
    <path id="Path_62" data-name="Path 62" d="M339.884,452.353c-.068-.045-.157-.144-.2-.127a2.569,2.569,0,0,0-.388.236c.068.045.157.145.2.127A2.406,2.406,0,0,0,339.884,452.353Z" transform="translate(17.244 9.665)" fill="#53dc2e"/>
    <path id="Path_63" data-name="Path 63" d="M335.27,452.758c-.059-.042-.117-.114-.179-.119a.707.707,0,0,0-.244.068c.073.065.14.16.225.184C335.121,452.9,335.2,452.806,335.27,452.758Z" transform="translate(15.411 9.836)" fill="#53dc2e"/>
    <path id="Path_64" data-name="Path 64" d="M333.52,454.6a2.821,2.821,0,0,0,.409-.538c.025-.052-.2-.22-.367-.4a2.634,2.634,0,0,0-.364.6C333.177,454.339,333.406,454.487,333.52,454.6Z" transform="translate(14.731 10.259)" fill="#53dc2e"/>
    <path id="Path_65" data-name="Path 65" d="M1506.239,459.675a.639.639,0,0,0,0-.247c-.384.016-.771.023-1.154.052-.071.006-.134.1-.318.244.255.169.318.243.388.253C1505.557,460.035,1506,460.214,1506.239,459.675Z" transform="translate(500.8 12.633)" fill="#53dc2e"/>
    <path id="Path_66" data-name="Path 66" d="M1652.921,447.24c.065-.013.116-.086.172-.133l-.294-.151-.066.216C1652.8,447.2,1652.866,447.251,1652.921,447.24Z" transform="translate(561.76 7.495)" fill="#53dc2e"/>
    <path id="Path_67" data-name="Path 67" d="M1508.465,469.236a1.725,1.725,0,0,1,1.137.548,3.321,3.321,0,0,1,.352,1.231c1.127.018,2.167-.027,3.194.069a1.073,1.073,0,0,1,.717,1.768,11.3,11.3,0,0,1-1.7,1.574c-.342.278-.716.486-.5,1.014a12.693,12.693,0,0,0,4.133-.113c2.189-.22,4.359-1.363,6.608-.243a1.472,1.472,0,0,0,.771-.024c1.117-.16,2.234-.318,3.347-.5,4.789-.8,9.556-1.783,14.372-2.366,5.692-.688,11.282-1.9,16.92-2.865.939-.16,1.855-.456,2.794-.63,4.688-.87,9.39-1.675,14.068-2.592,3.577-.7,7.128-1.532,10.689-2.314,5.511-1.209,11.015-2.446,16.531-3.629,4.918-1.055,9.836-2.119,14.778-3.058,6.3-1.2,12.633-2.276,18.952-3.407,1.792-.321,3.595-.59,5.373-.981,4.068-.894,8.1-1.941,12.184-2.759,9.963-2,19.8-4.511,29.67-6.907,1.683-.408,3.327-.993,4.964-1.564.648-.226,1.278-.609.966-1.572l-1.655-.542,1.515-.87c0-.6.007-1.19.01-1.627-.829-.885-2.214-.428-2.753-1.718,1.029-.873,2.56-1.23,2.978-2.878a5.191,5.191,0,0,0-3.557-3.514c-.933.2-2.035.435-3.132.689-5.071,1.179-10.134,2.386-15.211,3.54-4.4,1-8.817,1.929-13.22,2.916-4.575,1.026-9.128,2.153-13.716,3.113-4.843,1.012-9.713,1.889-14.574,2.81-3.152.6-6.307,1.162-9.46,1.749-6.4,1.192-12.818,2.278-19.186,3.615-7.814,1.642-15.584,3.495-23.373,5.262-1.608.366-3.2.788-4.818,1.13-3.65.775-7.31,1.5-10.956,2.282a7.72,7.72,0,0,0-2.917.932c-1.07.786-2-.4-2.965.123a12.248,12.248,0,0,0-1.879.795,4.609,4.609,0,0,1-2.136.844c-2.378.47-4.774.881-7.115,1.5a29.448,29.448,0,0,1-3.811.721c-2.491.318-4.967.771-7.431,1.258-2.892.572-5.755,1.286-8.647,1.851s-5.82.994-8.719,1.548a4.331,4.331,0,0,0-2.132.844,7.775,7.775,0,0,1-3.928,1.865c-.2.045-.364.277-.737.576.489.268.812.582,1.154.6C1507.086,469.372,1507.785,469.184,1508.465,469.236Z" transform="translate(500.999)" fill="#53dc2e"/>
    <path id="Path_68" data-name="Path 68" d="M1522.33,466.616l.185.049-.014-.143Z" transform="translate(508.037 15.556)" fill="#53dc2e"/>
    <path id="Path_69" data-name="Path 69" d="M2211.612,486.932c.1-.1.212-.2.312-.3a6.808,6.808,0,0,1,3.982-2.245,4.708,4.708,0,0,0,3.046-2.443,16.632,16.632,0,0,0-7.411.565,17.176,17.176,0,0,1-3.032.706c-2.834.4-5.668.706-8.5,1.031-.2.028-.425-.184-.623-.3.2-.226.411-.65.623-.65,2.041.028,3.883-.734,5.8-1.285,1.5-.424,3.061-.664,4.591-1,2.806-.593,5.611-1.186,8.417-1.821.269-.056.723-.169.426-.678-.851-.028-1.672-.057-2.537-.1.057-.579.255-1.087.085-1.4a1.483,1.483,0,0,1-.057-1.4c-.68.028-1.332.056-1.927.085-.581-1.412,1.261-1.327,1.3-2.414-1.389-.042-2.65-.071-3.9-.1-.042-.3-.085-.466-.1-.635s-.042-.339-.071-.508c.156-.071.3-.184.454-.24.51-.169,1.006-.353,1.12-.96a2.448,2.448,0,0,0,.113-1.257c-.368-.819-1.162-.551-1.828-.48a10.494,10.494,0,0,1-1.29.184,12.134,12.134,0,0,1-1.6-.226,21.787,21.787,0,0,1,3.783-1.214c.4-.113.864-.184.822-.875-.411-.141-.836-.3-1.616-.565,1.148-.339,1.956-.579,2.763-.833a3.233,3.233,0,0,0,1.2-.452,1.693,1.693,0,0,0,.468-1.087c0-.494-.411-.748-.907-.706-.524.042-1.035.141-1.545.226-1.714.282-3.415.565-5.242.875a3.692,3.692,0,0,1,2.678-1.68c1.672-.48,3.387-.819,5.073-1.271a6.086,6.086,0,0,0,1.247-.635c-.142-1.271-.269-2.372-.383-3.459-.468-1.172-1.771-.974-2.621-1.553.935-1.073,1.048-2.655,2.664-3.262a7.488,7.488,0,0,1-1.063-1.341,4.439,4.439,0,0,1-.2-1.341c-.624-.141-1.445.155-1.629-.89-.029-.226-.482-.508-.765-.537a3.682,3.682,0,0,0-1.29.127c-6.065,1.172-12.129,2.33-18.194,3.544-2.565.508-5.1,1.144-7.652,1.751a9.412,9.412,0,0,1-5.583-.664c2.451-1.059,4.619-1.977,6.958-2.979-1.488-.593-2.834.071-4.492-.127a5.647,5.647,0,0,1,.935-.593c1.176-.311,2.352-.593,3.514-.918.142-.028.241-.226.51-.48-.255-.508-.539-1.073-.85-1.708,1.417-.424,2.891-.847,4.549-1.341-.269-.607-.468-1.031-.709-1.553-1.729.311-3.358.565-4.974.918-2.38.537-4.732,1.172-7.113,1.694-9.692,2.16-19.328,4.575-29.091,6.368-1.885.353-3.741.9-5.611,1.271-4.365.847-8.729,1.624-13.107,2.443q-5.505,1.017-11.038,2.047c-5.554,1.073-11.137,2.076-16.664,3.262-7.411,1.581-14.793,3.318-22.19,4.956q-8.289,1.843-16.593,3.6c-2.721.579-5.47,1.087-8.2,1.581-3.259.579-6.518,1.115-9.777,1.666-5.838,1-11.69,1.963-17.514,2.993-2.14.367-4.279.833-6.4,1.3-.453.1-.708.438-.425,1.1a25.66,25.66,0,0,0,6.121-.48c3-.466,5.979-1.1,8.969-1.638,6.858-1.2,13.716-2.429,20.589-3.544,6.716-1.087,13.348-2.556,19.994-3.925,2.2-.452,4.435-.734,6.66-1.1a27.2,27.2,0,0,1-5.37,1.68c-4.591.974-9.2,1.906-13.8,2.852-1.715.353-3.415.678-5.13,1-4.365.847-8.7,1.85-13.093,2.485-3.812.551-7.481,1.624-11.251,2.316a4.6,4.6,0,0,0-1.176.65c1.5,1.412,3.117,2.217,4.832,1.793a29.824,29.824,0,0,0,3.557-.678c.411-.155.964.071,1.459.113-.1.946-.17,1.751-.269,2.7-1.984.424-3.925.89-5.895,1.257-4.449.833-8.913,1.61-13.376,2.429a2.407,2.407,0,0,0-.694.3h-69.3c-.4-.1-.78-.212-1.176-.3-3.047-.635-5.994-1.694-9-2.57q-12.413-3.579-24.811-7.173c-6.093-1.765-12.214-3.474-18.265-5.394q-10.563-3.367-21.325-6c-2.2-.537-4.393-1.158-6.547-1.85-4.605-1.483-9.168-3.05-13.759-4.533-5.044-1.638-10.089-3.191-15.133-4.8-1.531-.494-3.032-1.1-4.563-1.581q-10.309-3.156-20.646-6.269c-.638-.2-1.29-.325-1.927-.466a50.785,50.785,0,0,1-6.079-1.44c-4.492-1.638-9.21-2.09-13.858-2.965a23.284,23.284,0,0,0-2.82-.3c-1.8-.127-2.466.3-3.245,1.977-.17.353-.34.678-.5,1.031-.595,1.3-.552,1.779.51,2.711a8,8,0,0,0,2.125,1.355,25.4,25.4,0,0,0,3.514,1.115c3.1.819,6.263,1.5,9.352,2.386,3,.861,6.008,1.638,9.083,2.2,2.494.48,4.974,1.073,7.439,1.708,2.834.734,5.654,1.581,8.459,2.386,2.551.734,5.13,1.384,7.638,2.273,5.441,1.92,10.868,3.883,16.48,5.295,1.389.339,2.749.748,4.095,1.214,6.617,2.3,13.334,4.25,20.107,6.029,8.063,2.1,16.154,4.095,24.089,6.693,7.836,2.556,15.728,4.9,23.635,7.258h-5.158c-7.269-2.076-14.51-4.278-21.793-6.312-5.569-1.567-11.109-3.205-16.678-4.787q-5.186-1.483-10.387-2.937c-5.1-1.426-10.245-2.725-15.318-4.292-8.034-2.5-16.012-5.224-24.046-7.766-5.059-1.6-10.16-3.036-15.233-4.561-2.267-.678-4.478-1.553-6.759-2.118-4.407-1.087-8.87-1.949-13.263-3.05-2.877-.706-5.682-1.44-8.6-.48-.6.537-1.219,1.073-1.8,1.638a6.649,6.649,0,0,0-1.091,1.285c-1.87,3.092-4.747,4.561-8.218,5.168-1.091,1,0,2.33-.425,3.474-.794.607-1.6,1.214-2.381,1.807.794,2.358.794,2.358-1.162,3.756a15.535,15.535,0,0,0,1.729.974c1.148.452,2.338.791,3.486,1.243.227.085.34.438.708.96-3.5-.466-6.631-1.3-9.72-.24-.368,1.666,1.516,1.652,1.856,2.923a9.929,9.929,0,0,1-1.318.226c-.666.028-1.332-.1-1.984-.014-.453.057-.864.381-.652,1.172.793.2,1.658.424,2.72.692-1.006,1.468-2.48,1.115-3.825,1.539-.567.819-1.2,1.737-1.984,2.852a12.505,12.505,0,0,1,1.162,1.61c.3.579-.141,1.228-.864,1.426-.269.071-.6,0-.822.141a.983.983,0,0,0-.411.65.848.848,0,0,0,.34.692c1.162.367,2.338.72,3.528,1,1.927.452,3.854.89,5.781,1.327h-5.3c-1.757-.268-3.5-.522-5.243-.819a3.347,3.347,0,0,0-.878.1c-.184.24-.354.48-.524.72h-24.542c-1.134-.339-2.267-.734-3.386-1.172a22.228,22.228,0,0,0-2.154-.635c-1.417-.424-2.862-.777-4.251-1.3s-2.678-1.257-4.067-1.765c-5.3-1.906-10.627-3.756-15.941-5.634-1.955-.692-3.868-1.468-5.852-2.076-4.506-1.384-9.054-2.669-13.575-4.038-3.968-1.2-7.907-2.471-11.86-3.728a32.251,32.251,0,0,0-9.026-1.6,5.281,5.281,0,0,0-1.686.282,15.564,15.564,0,0,0-1.686.819c-.241,1.017-.17,2.189-.737,2.824-.978,1.144-1.729,2.669-3.415,3.05-1.374.3-1.786,1.214-1.856,2.527a8.527,8.527,0,0,1-.694,2.81c-.142.311-.85.367-1.29.579a.66.66,0,0,0-.312.367c-.227,1.186-1.29,1-2.2,1.214a2.727,2.727,0,0,1,1.077,1.694,3.828,3.828,0,0,1-2.423,4.716,1.893,1.893,0,0,0-1.332,1.059H1522.858c4.733.325,9.451.664,14.184,1a45.647,45.647,0,0,1,9.111,1.087,36.282,36.282,0,0,0,5.838.607c.949.1,1.9.212,2.962.325.042.918-1.233,1.214-1.715,1.779a13.75,13.75,0,0,1-1.6,1.525c-.326.282-.737.522-1.077.8-1.63,1.341-1.474,2.118.708,3.318a10.526,10.526,0,0,0,.992.438c-.879,2.273-.879,2.273.822,6.086,2.111.551,5.058.72,4.662,3.036-2.2-.071-4.407-.155-6.631-.226a9.833,9.833,0,0,0-4.846.607,7.23,7.23,0,0,1-2.848.226c-10.911-.381-21.821-.847-32.732-1.2-4.251-.127-8.53-.028-12.8-.042a5.542,5.542,0,0,0-3.316.762,11.024,11.024,0,0,0,2.14.579c3.67.254,7.354.452,11.024.621,4.662.212,9.338.4,13.943.593.539.537.964.96,1.417,1.426,2.933-.127,5.555.777,8.459.847,3.118.085,6.206.466,9.3.706,2.947.24,5.909.494,8.785.734,1.077.96,2.1,1.864,3.217,2.852-1.12.254-2.777.3-3.344.791-1.46,1.285-3.387.988-5.285.974a159.549,159.549,0,0,1-16.055-1.017c-1.105-.113-2.267-.085-3.4-.113-3.259-.085-6.518-.127-9.777-.24-7.226-.268-14.453-.565-21.68-.847-1.984-.071-3.968-.155-5.952-.212a18.135,18.135,0,0,0-3.386-.028c-5.47.8-11.01.24-16.508.325-6.943.1-13.9-.014-20.844,0a11.191,11.191,0,0,0-2.381.409c-.793.169-1.5.508-2.31.607-1.147.155-2.409.2-2.154-1-2.069.113-3.911-.155-5.413.791a4.119,4.119,0,0,1-2.012.141,91.461,91.461,0,0,0-10.032-.282,7.466,7.466,0,0,1-.794-1.525,16.419,16.419,0,0,1-.368-2.316c-1.162-.282-2.14-.494-3.1-.748a2.976,2.976,0,0,1-2.154-2.245,14.363,14.363,0,0,1-.156-4.857c.085-1.214.992-1.821,1.714-2.725-.637-.466-1.133-.819-1.629-1.2a1.484,1.484,0,0,1-.5-2.132c.1-.2.014-.494.014-.8a6.6,6.6,0,0,0-1.3-.466,15.614,15.614,0,0,0-1.63-.028c-1.29-.042-1.729-.466-1.446-1.638a4.245,4.245,0,0,0-.4-2.979,5.116,5.116,0,0,0-1.034-.085,29.342,29.342,0,0,1-5.994-.127c-2.168-.184-4.336-.438-6.49-.678-3.7-.4-7.411-.579-11.109-1.059s-7.411-.875-11.109-1.412c-4.038-.593-8.062-1.412-12.115-1.963-10.826-1.454-21.68-2.584-32.59-3.191-2.551-.155-5.087-.311-7.624-.48-2.1-.141-4.18-.339-6.263-.48-1.715-.127-3.443-.226-5.172-.339-3.075-.212-6.164-.522-9.253-.607-5-.113-10.018-.056-15.02-.1-5.456-.056-10.911-.113-16.38-.226-3.273-.056-6.532-.3-9.806-.367-1.828-.042-3.642.056-5.455.141a2.14,2.14,0,0,0-1.87,1.384c-.383.819.057,1.384.5,1.977a1.17,1.17,0,0,1,.127.508c-1.544,3.05-1.034,6.2-.3,9.46a6.177,6.177,0,0,1-1.134.141c-1.63-.184-3.259-.367-4.874-.607-3.5-.508-7-1.087-10.5-1.567a25.046,25.046,0,0,0-3.259-.1c-1.077,1.172-2.395.579-3.585.353-2.763-.508-5.526-1.13-8.275-1.723-1.686-.353-3.457-.268-5.044-1.059a2.987,2.987,0,0,0-1.077-.085c-.723-.042-1.46-.071-2.182-.127-1.856-.141-3.713-.311-5.541-.452-.4,1.186-.227,1.963.836,2.386.411.169.865.282,1.261.494,1.105.607,1.346,1.468.723,2.7a3.941,3.941,0,0,0-.212,3.036c.34,1.4,1.417,2.047,2.083,2.937.283,1.864.085,3.488-1.19,4.758.312,1.073.6,2.005.808,2.767a19.511,19.511,0,0,1,1.672,1.271,5.15,5.15,0,0,1,.822.988c-.779-.3-1.459-.565-2.14-.791a12.955,12.955,0,0,1-5.866-3.191,9.18,9.18,0,0,0-3.2-1.61q-18.938-6.545-37.919-13.047c-.978-.339-1.984-.664-2.962-1.017-.694-.96-1.374-1.934-2.069-2.895.241-.353.439-.692.638-1.045h-9.21c-4.407-1.13-8.771-2.372-13.079-3.911-2.21-.791-4.449-1.581-6.716-2.231-6.66-1.892-13.178-4.179-19.739-6.354-7.468-2.457-14.893-5.069-22.318-7.639-5.059-1.737-10.061-3.572-15.133-5.267a86.144,86.144,0,0,0-11.733-3.488,20.05,20.05,0,0,1-5.356-1.666,35.872,35.872,0,0,0-9.338-3.008,28.515,28.515,0,0,1-3.146-.932q-16.9-6.015-33.781-12.044c-5.626-2.019-11.208-4.137-16.834-6.128-3.018-1.073-6.093-1.977-9.154-2.965,3.967,2.132,8.431,3.445,12.965,5.648-2.225.508-4.038-.946-5.852-.847-.468.127-.878,1.243-1.672.282a4.034,4.034,0,0,0-3.5-1.779,15.412,15.412,0,0,1-5.767-1.624c-1.6-.65-3.16-1.37-4.761-1.977-.51-.2-1.488-.339-1.644-.169-.695.706-1.715.282-2.763-.042-1.9-.593-3.7-1.581-6.362-1.892,2.111,1.228,3.741,2.189,5.3,3.106.113.89.2,1.652.312,2.584,2.267,1.059,4.676,2.146,7.014,3.29,1.927.946,4.067,1.666,5.611,2.993,2.593.254,4.577,1.807,6.915,2.64,6.221,2.217,12.384,4.575,18.577,6.876q11.478,4.257,22.969,8.514c3.684,1.37,7.411,2.626,11.039,4.095a31.573,31.573,0,0,0,8.913,2.4c2.2.212,4.888.565,6.036,2.753.142.3,1.006.621,1.573.819q4.676,1.61,9.38,3.149a31.052,31.052,0,0,0,3.628,1.045c.666.127,1.4-.254,1.984-.071s.921.875,1.5,1.242a9.064,9.064,0,0,0,1.743.635c3.883,1.3,7.765,2.57,11.619,3.9,7.737,2.669,15.431,5.408,23.168,8.062h-3.373q-14.559-4.956-29.147-9.94c-7.439-2.542-14.864-5.21-22.374-7.512-4.534-1.384-8.955-2.88-13.305-4.631-.581-.226-1.2-.381-1.8-.565-9.182-2.8-18.194-6.086-27.22-9.291-3.854-1.37-7.623-2.909-11.463-4.321-5.016-1.85-10.075-3.615-15.077-5.493-4.832-1.836-9.635-3.77-14.425-5.7a28.96,28.96,0,0,0-6.419-1.821,42.974,42.974,0,0,0,5.427,2.527,88.232,88.232,0,0,1,13.476,6.283,18.9,18.9,0,0,0,3.812,1.68c6.15,1.977,11.789,5,18.038,6.763a34.008,34.008,0,0,1,4.449,2.1c-2.947-.254-4.846-1.539-6.887-1.708.028.3.2.847.057.847-1.389.1-1.148.762-.921,1.228,4.478,2.965,9.451,4.645,14.326,6.368,5.753,2.033,11.336,4.419,17.2,6.2.68.2.85.635.411.96-1.913-.113-3.713-1.751-5.682-1.327-.227.621.482.96,1.219,1.257a46.164,46.164,0,0,1,5.654,2.259,32.478,32.478,0,0,0,6.008,2.5c4.18,1.412,8.346,2.852,12.512,4.292.68.24,1.473.551,1.29,1.355-7.468-2.513-14.935-4.942-22.332-7.54q-18.066-6.312-36.034-12.835c-3.7-1.341-7.5-2.316-11.194-3.6-9.083-3.135-17.939-6.735-26.639-10.689a12.089,12.089,0,0,1-2.338.353c-.964-.028-2.04-.282-3.231-.452a21.386,21.386,0,0,0,6.036,3.911c5.838,2.584,11.747,5.041,17.84,7.159a25.1,25.1,0,0,1,5.7,2.6,5.113,5.113,0,0,1-3.273-.466c-5.81-2.344-11.662-4.6-17.372-7.088-4.308-1.878-8.431-3.106-12.639-2.457a9.012,9.012,0,0,1,1.261,1.765c-2.565-.565-5.129-1.115-7.368-1.61-.921.381-1.559.65-2.069.847-2.706-.791-5.1-1.483-7.609-2.217-.964.748-2.692.8-3.1,1.906,1.02.692,2.069,1.313,2.947,2.005.666.536,1.034,1.115.609,1.708a5.051,5.051,0,0,0-.779,1.793c-.34,1.2-1.559,1.581-3.429,1.313a31.817,31.817,0,0,1-3.174-.678c-1.091-.268-2.182-.593-3.273-.875a9.757,9.757,0,0,0,2.862,1.5c2.182.8,3.387,1.977,3.713,3.417.34,1.468-1.332,1.694-3.032,1.878.666,1.045,1.247,1.949,1.87,2.923-.623.48-1.19.918-1.715,1.327-3.911-.8-4.577-.89-5.654-.621,0,.537-.014,1.158-.014,1.807-.5-.028-1.162-.056-1.814-.071.1.424.042.65.2.8,1.006,1.045.992,1.793-.34,2.231-.439.155-1.091.268-1.19.551-.283.8-1.176.48-2.1.311-.3-.056-.6.141-1.247.3,3.429,1.836,7.014,3.205,9.04,5.69-1.02.494-1.97-.339-2.933-.635-1.049-.325-2.111-.635-3.16-.96-.964-.3-1.927-.621-3.018-.974a8.554,8.554,0,0,0,.241,1.638,2.18,2.18,0,0,0,.737.72,12.862,12.862,0,0,0,1.544-.466,17.342,17.342,0,0,1,6.221,2.782,9.956,9.956,0,0,0,2,1.087c4.109,1.765,7.978,3.812,12.087,5.606h-3.117c-.227-.085-.453-.184-.68-.268-5.5-2.231-10.953-4.518-16.536-6.58-.779-.282-1.105-.127-1.063.48,2.678,1.1,5.413,2.2,8.133,3.36,1.573.678,3.061,1.483,4.648,2.118.751.3,1.5.593,2.239.89h-1.332c-2.437-1-4.889-2-7.368-2.909-1.134-.41-2.125-.325-2.182.748,1.516.706,3.046,1.44,4.563,2.16H925c-.17.071-.368.113-.538.169-.524-.212-1.049-.424-1.573-.621s-1.219-.466-1.445.254c.468.339.964.65,1.459.96-.822.466-1.615,1.172-2.466,1.708a2.612,2.612,0,0,0,1.87,2.81c.652.24,1.544.24,1.729,1.214-.014.014-.042.028-.057.057a8.424,8.424,0,0,1-3.273-1.807,4.781,4.781,0,0,0-4.18-1.045,8.355,8.355,0,0,1-2.706-.494,3.441,3.441,0,0,0,1.162,2.612,4.376,4.376,0,0,0-2.3.028c-.213.621-.453,1.313-.737,2.1-.609.254-1.275.551-1.97.847.057.367,0,.748.156.89,1.332,1.172,2.707,2.3,4.053,3.459a1.993,1.993,0,0,1,.283.537,11.759,11.759,0,0,1-4.336-1.172c-2.48-.918-4.945-1.906-7.425-2.824a8.922,8.922,0,0,0-3.6-.734,6.3,6.3,0,0,1-1.9-.452,68.283,68.283,0,0,0-7.524-2.047c2.636,1,4.789,1.708,6.844,2.626,2.919,1.3,5.994,2.245,8.8,3.841.893.508,1.955.72,2.891,1.158.227.113.3.551.425.861a.108.108,0,0,0,.057.014h.014a.014.014,0,0,1-.014.014h-.043a.044.044,0,0,0-.014-.028,4.535,4.535,0,0,0-2.848-.452c1.162,2.923,2.267,3.968,7.043,6.071a26.341,26.341,0,0,0,1.686,2.273,9.586,9.586,0,0,0,1.219,1.045,1.093,1.093,0,0,0-.213.72c-.751-.113-1.346-.2-1.941-.3a4.142,4.142,0,0,0-1.913,3.318,19.651,19.651,0,0,1-4.563-1.412,198.443,198.443,0,0,0-22.771-7.794c-.468-.141-.921-.268-1.233.48a3.6,3.6,0,0,0,.808.565c1.955.72,3.939,1.341,5.866,2.118,2.267.918,4.506,1.934,6.731,2.951a5.226,5.226,0,0,1,1.077.875,4.188,4.188,0,0,0,1.105.875c3.061,1.073,5.64,3.036,8.573,4.321a14.848,14.848,0,0,0,1.573.565c-.383.127-.751.254-1.148.381a11.026,11.026,0,0,0,1.219,1.412,23.274,23.274,0,0,1-5.71-1.4,83.541,83.541,0,0,0-9.933-3.3c-4.818-1.4-9.593-2.965-14.382-4.462-.354-.113-.708-.268-1.077-.367-6.971-1.708-13.83-3.869-20.8-5.62-1.261-.325-2.551-.522-4.138-.847,3.712,2.273,7.779,2.993,11.761,5.1-.992.2-1.544.325-2.1.438a4.942,4.942,0,0,0,3.528,4.024c.864.325,1.729.635,1.984,1.807.1.48.864.988,1.431,1.172a4.141,4.141,0,0,1,2.607,2.556c-.921.706-2.083-.056-2.962.438-1.049.593-2.012.2-3-.056a8.769,8.769,0,0,0-3.032-.664c-.014.48-.014.847-.028,1.214-.156.042-.326.169-.453.127-2.99-.946-5.966-1.892-8.941-2.866-2.154-.692-4.308-1.44-6.461-2.118q-6.653-2.1-13.305-4.137a6.315,6.315,0,0,0-2.976-.452c-.17.734.312.875.751,1.031,2.692.9,5.4,1.793,8.091,2.683,3.33,1.1,6.66,2.189,9.976,3.318a10.032,10.032,0,0,1,2.055.946,17.287,17.287,0,0,0,5.555,2.739,1.07,1.07,0,0,1,.51.24c2,1.892,4.662,2.414,7.085,3.445.482.212.964.438,1.36.621.014.833-.482,1.144-.893,1.1-1.729-.169-3.429.282-5.214-.466a89.619,89.619,0,0,0-9.409-3.149q-12.54-3.643-25.109-7.159c-6.192-1.723-12.441-3.233-18.633-4.984-7.2-2.033-14.326-4.292-21.51-6.326-6.291-1.793-12.611-3.4-18.917-5.083-2.749-.734-5.47-1.539-8.218-2.189-5.073-1.186-10.16-2.273-15.247-3.431-2.579-.593-5.144-1.271-7.708-1.892-1.006-.24-2.026-.424-3.018-.678-5.555-1.426-11.152-2.7-16.65-4.307h-7.935c-.51-.141-1.006-.3-1.5-.438a54.278,54.278,0,0,1-6.858-2.3c-.878-.381-1.8-.664-2.706-.96-3.712-1.2-7.567-1.991-11.223-3.445-1.743-.678-3.684-.89-5.328-1.934a5.455,5.455,0,0,0-1.2-.381q-4.1-1.292-8.176-2.626a30.71,30.71,0,0,1-4.8-1.694,18.5,18.5,0,0,0-5.413-1.666,5.348,5.348,0,0,1-.879-.311c-1.077-1.85-1.077-1.836-2.721-2.33-3.061-.9-6.135-1.751-9.154-2.753-4.52-1.525-9.069-2.965-13.674-4.236q-7.205-2.012-14.4-4.052c-.312-.085-.609-.2-.921-.3-2.012-.65-4.01-1.4-6.051-1.934q-8.629-2.266-17.3-4.377c-5.88-1.426-11.775-2.768-17.67-4.095-3-.678-6.036-1.243-9.055-1.821a35.874,35.874,0,0,1-3.755-.635,29.792,29.792,0,0,0-9.31-1.483c-.227,0-.453.282-.822.537a4.983,4.983,0,0,0,3.939,1.172c.538-.056,1.063.028,1.034.777-.1.056-.2.141-.3.127a2.183,2.183,0,0,1-.921-.1,7.006,7.006,0,0,0-6.419-.169,4.3,4.3,0,0,1-2.154.212c-3.245-.579-6.461-1.257-9.692-1.892-.709-.141-1.4-.3-2.069-.438-.3.748-.581,1.327-.765,1.92-.17.565-.255,1.158-.411,1.878-1.488-.381-2.862-.748-4.7-1.228,1.091,1.624,3.188,2,2.862,4.052-.524.141-1.077.282-1.672.438a7.714,7.714,0,0,0,4.01,3.135c2.536.974,5.073,1.991,7.765,3.064-.609.184-1.006.311-1.488.466,1.4,1.031,3.457.3,4.435,1.68,1.049,1.483,3.287.311,4.336,2.316a20.2,20.2,0,0,1-2.423-.3c-2.055-.522-4.1-1.073-6.121-1.666a42.2,42.2,0,0,1-5.767-1.85c-1.97-.9-4.18-.494-6.107-1.426-.34-.155-.921.184-1.4.3a4.418,4.418,0,0,0,2.891,2.993,17.28,17.28,0,0,0,3.273,1.228,15.874,15.874,0,0,1,5.144,2.245,49.566,49.566,0,0,1-10.812-2.047c1.2.777,2.451,1.426,2.3,3.106,1.828.635,3.628,1.271,5.413,1.906.085.028.142.169.156.268.028.057-.042.141-.142.424-1.19-.2-2.423-.424-3.656-.579-.468-.056-1.063-.226-1.318.551.142.212.269.551.51.706,3.387,2.118,7.425,2.259,11.194,3.431a1.7,1.7,0,0,1-2.083.593q-4.208-.953-8.389-1.934c-1.559-.367-3.1-.72-4.648-1.115a45.285,45.285,0,0,0-4.605-1.228,31.2,31.2,0,0,0-4.449-.014c.6,1.073,1.133,2.062,1.559,2.852-.581,1.821-2.352,1.045-2.99,1.624-.581,1.2-1.063,2.189-1.474,3.036a98.551,98.551,0,0,0-10.727,1.709c-1.87.409-3.769.706-5.64,1.1a2.055,2.055,0,0,1-2.324-.833c-.425-2.725.779-4.631,3.16-5.916a4.873,4.873,0,0,0,2.125-1.68c-.51-.706-1.034-1.031-1.842-.763a27.932,27.932,0,0,1-7.368.9c-.255-.381-.453-.678-.609-.918-1.5-.028-2.962-.056-4.364-.071-.142-.438-.241-.762-.34-1.1-.581-.057-1.134-.127-1.686-.184.028-.212.028-.339.057-.353,2.621-.875,5.257-1.751,7.978-2.64-.822-1.384-.213-3.106-.992-4.547a7.728,7.728,0,0,1-2.551.579,5.543,5.543,0,0,0-3.4.692c-1.063.551-2.125.367-3.316.621a1.805,1.805,0,0,1,1.559-1.37c1.332-.4,2.664-.777,4-1.172.17-.607-.312-1.327.51-1.638.383-.155.482-.452-.014-.946-2.947.381-6.051.706-9.125,1.243q-5.016.847-9.976,2.047-13.816,3.41-27.589,6.989c-3.372.875-6.7,1.906-10.061,2.866-.581.169-1.176.311-1.771.452-.439.113-.949.085-1.119-.367-.184-.522.3-.748.708-.875,1.5-.466,2.99-.946,4.506-1.355,6.15-1.61,12.314-3.191,18.449-4.815,6.32-1.666,12.611-3.346,18.917-5.041a2.442,2.442,0,0,0,.623-.4c-.113-.438-.213-.833-.326-1.285a7.023,7.023,0,0,1,2.919-1.059c1.02-.226,2.055-.424,3.046-.748.935-.311,2.026-.155,3.018-.847a18.393,18.393,0,0,0-7.836.113c-4.591.974-9.2,1.963-13.759,3.05-3.628.861-7.212,1.906-10.812,2.866-1.842.508-3.656,1.116-5.512,1.5a70.609,70.609,0,0,0-8.389,1.878,17.6,17.6,0,0,1-3.514.974c-2.976.268-5.767,1.285-8.629,2.019-5.64,1.44-11.251,3.078-16.862,4.631-6.716,1.85-13.433,3.714-20.164,5.521a34.732,34.732,0,0,1-4.364.734c-.241.042-.538-.24-1.2-.551,2.536-.847,4.648-1.624,6.787-2.273,2.834-.847,5.7-1.652,8.573-2.344s5.569-2.005,8.544-2.245a1.767,1.767,0,0,0,.737-.254,15.3,15.3,0,0,1,6.036-1.3c.4-.028,1.006-.071,1.148-.325.723-1.2,1.856-.508,2.791-.692a3.537,3.537,0,0,0,.283-.41c.411-.8,1.02-1.271,1.885-.762.949.565,2.012-.537,2.9.325.1.085.51-.056.723-.184a14.7,14.7,0,0,1,4.109-1.468c.2-.41.368-.8.567-1.186s.383-.72.581-1.1c.581.212.978.635,1.544.184.609-.48.978.621,1.63.4.156-.071.354-.071.482-.169.482-.367,1.162-.678,1.332-1.158.283-.777,1.318.325,1.389-.72a.9.9,0,0,1,1.19-.72c1.233.367,2.125-.565,3.231-.664a21.1,21.1,0,0,0,3.245-.932c2.366-.635,4.69-1.723,7.113-.861a6.262,6.262,0,0,1,6.66-2.019c.425-1.017.864-1.384,1.587-1.243.326.056.623.3.949.381.68.155.921-.325,1.134-.833.638.212,1.261.452,1.927.621.567.141.794-.127,1.077-1.172a5.3,5.3,0,0,0,2.82-.974,2.746,2.746,0,0,1,1.247-.282c.1-.014.283.2.312.339a.517.517,0,0,1-.156.424,2.121,2.121,0,0,1-.439.268c1.148.48.794-.875,1.4-1.1a5.115,5.115,0,0,0,1.063.565c.779.2.609-.607.921-.9.411-.4,1.119-.932,1.53-.8,1.7.508,3.33-.184,4.96-.127.184-.424.368-.819.553-1.243.524.141,1.006.268,1.474.4.879-1.186.879-1.172,2.395-1.666a4.315,4.315,0,0,0,2.522-1.694,6.315,6.315,0,0,1,1.105-1.115c-1.275-.72-2.579-.339-3.812-.141-2.919.466-5.824,1.059-8.729,1.624a13.334,13.334,0,0,1-3.259.452c-.014-.8.524-.932,1.034-1.045,2.976-.65,5.937-1.37,8.927-1.892a9.294,9.294,0,0,0,6.5-4.052c-1.5.071-.822-1.271-1.375-1.949-.5.1-1.006.169-1.516.282a8.051,8.051,0,0,1-3.585.212,4.018,4.018,0,0,0-2.48.508,2.536,2.536,0,0,1-2.2.311,1.924,1.924,0,0,0-1.289,0c-1.289.579-2.706.41-4.038.748-8.2,2.061-16.409,4.052-24.613,6.1-4.719,1.172-9.522,1.878-14.312,2.767a75.31,75.31,0,0,0-7.893,1.652c-2.834.833-5.824.847-8.629,1.821-.652.226-1.318-.254-2.012.226a2.775,2.775,0,0,1-1.885.565c-1.049-.184-1.02.8-1.587,1.087a3.375,3.375,0,0,1-.978.282,6.227,6.227,0,0,1-1.53.085,7.528,7.528,0,0,1-1.318-.4c-.241.466-.383.777-.609,1.2a3.97,3.97,0,0,0-3.9.621,5.211,5.211,0,0,1-2.678.833,12.286,12.286,0,0,0-2.919.988,1.183,1.183,0,0,1-.765,0c-1.672-.791-2.962.085-4.293.89a6.561,6.561,0,0,1-5.37.833c-.312.367-.638.748-.836,1-.907.127-1.672.184-2.423.339-.907.184-1.814.452-2.735.65-.793.169-1.757-.353-2.381.635-.085.141-.708.113-.964-.042a2.775,2.775,0,0,0-2.947.184,16.974,16.974,0,0,0-1.488.988c-.623-.593-1.2.014-1.771.113a14.58,14.58,0,0,1-4.52.141c-.156-.042-.34.056-.609.113-.255.537-.538,1.13-.893,1.878a3.937,3.937,0,0,0-2.565.438,2.348,2.348,0,0,0-2.65-.169c-.836.367-1.729.212-2.494.579-.581.282-.723-.2-1.049-.409a2.612,2.612,0,0,0-.85-.169,5.3,5.3,0,0,1,.411.734c.057.212.142.537.043.664a.737.737,0,0,1-.666.113,4.2,4.2,0,0,1-.836-.579,38.077,38.077,0,0,1-4.619,1.694,3.052,3.052,0,0,1-2.466.057c0,.282,0,.565.014.9-2.1-.367-4.038.565-5.753-.056a11.555,11.555,0,0,1-2.31,1.426,45.248,45.248,0,0,1-4.761,1.017,4.865,4.865,0,0,1-1.346-.169c-.184-.692-.34-1.341-.51-1.977-.354.184-.708.339-1.049.537-.283.169-.567.607-.793.565-1.516-.311-2.111,1.285-3.316,1.553-1.488,1.765-3.656,2.033-5.682,2.344-1.289.2-2.437.72-3.656,1-2.168.522-4.194,1.652-6.348,2.231s-4.251,1.313-6.32,2.09c-1.148.438-2.253.946-3.4,1.341-.184.071-.368.127-.553.2v71.9h1920V486.932Zm-5.016-22.239c.057-.028.156.014.227.028-.057.042-.127.1-.17.127-.1.028-.184.042-.269.071A1.625,1.625,0,0,1,2206.6,464.694Zm-5.427.932c.014.071.029.127.043.184l-1.148.3c-.014-.057-.029-.127-.043-.184ZM2181.5,450.207a6.655,6.655,0,0,1,.921-.014c-.014.141,0,.4-.071.424a5.682,5.682,0,0,1-.978.2C2181.444,450.5,2181.444,450.221,2181.5,450.207ZM1067.963,470.229c-.227-.1-.439-.212-.666-.311.071-.042.17-.141.212-.113a7.265,7.265,0,0,1,.68.311C1068.1,470.158,1068.02,470.243,1067.963,470.229Zm-.212-10.406a2.382,2.382,0,0,1-.624-.381,1.55,1.55,0,0,1,.666-.042,2.343,2.343,0,0,1,.652.424A2.289,2.289,0,0,1,1067.751,459.822Zm11.959,14.416q5.526,1.779,11.024,3.558C1086.767,477.529,1083.338,475.4,1079.71,474.239Zm-61.965-15.419c.057-.875.836-.692,1.587-.424,8.559,3.106,17.117,6.255,25.69,9.319,3.4,1.214,6.887,2.231,10.33,3.346l2.635.847C1044.257,468.421,1031.093,463.338,1017.745,458.82ZM908.992,501.871a1.077,1.077,0,0,1-.227.014,3.246,3.246,0,0,0,.4-.1A.634.634,0,0,1,908.992,501.871Zm2.891.918a1.386,1.386,0,0,1-.241.014c0-.1.014-.2.014-.3a1.013,1.013,0,0,1,.213.113C911.9,502.648,911.882,502.733,911.882,502.789ZM469.84,464.976c-.028.014-.1-.028-.156-.057.128-.042.255-.1.4-.141A2.978,2.978,0,0,1,469.84,464.976Zm2.919-.593a20.106,20.106,0,0,1-2.437.282,4.057,4.057,0,0,1,1.2-.748c3.415-.833,6.858-1.6,10.287-2.372a5.476,5.476,0,0,1,1.219.254C479.234,462.759,476,463.607,472.759,464.383Zm11.9-3.05c-.042-.057-.142-.113-.127-.155s.085-.1.142-.155l.213.042Zm37.9,20.248c-1.559-.325-3.1-.734-4.676-.932s-2.395.763-2.182,2.316a10.544,10.544,0,0,0,.539,1.6c-.6-.071-1.006-.127-1.417-.155-.5-.028-.992-.042-1.7-.071.184.72.283,1.228.425,1.708a1.947,1.947,0,0,1,.085.89H512c.014-.042.028-.085.043-.141-.553-.141-.992-.141-1.261.141h-1.7a.605.605,0,0,1-.014-.071,1.609,1.609,0,0,0-1.105.071H489.763c.071-.042.156-.071.227-.113a2,2,0,0,1,1.247-.155,6.885,6.885,0,0,0,4.733-.932,8.5,8.5,0,0,1,3.2-1.017,15.184,15.184,0,0,0,6.235-1.723c.1-.381.2-.777.3-1.158.893-.367,1.757-.734,2.239-.932.34-1,.368-1.821.794-2.2.666-.593,1.219.2,1.771.565.127.085.34.042.623.071a11.781,11.781,0,0,1,1.034-1.017c.255-.184.68-.4.921-.3a1.152,1.152,0,0,0,1.247-.071,9.581,9.581,0,0,1,3.9-1.115,7.709,7.709,0,0,0,.822-.085c.326.918.638,1.821.949,2.725,1.289.89,3.117.861,4.534,2.513C523.586,481.793,523.076,481.68,522.566,481.581Zm32.265-20.3c1.573-.381,2.749.353,4.378.932C557.466,462.152,556.106,462.251,554.831,461.277Zm7.17,1.694a4.951,4.951,0,0,1-.482-.212c.057-.057.113-.141.156-.141a4.943,4.943,0,0,1,.482.212C562.1,462.886,562.043,462.971,562,462.971ZM1065.285,474.7c-.708-.226-1.417-.452-2.14-.678.014-.085.042-.155.057-.226.723.212,1.46.424,2.182.635C1065.356,474.535,1065.313,474.62,1065.285,474.7Zm125.021,37.714a37.56,37.56,0,0,0-7.68-1.073c-3.8-1.285-7.581-2.584-11.364-3.925q-7.291-2.563-14.609-5.027a1.207,1.207,0,0,0-.468-.89c-.113-.1-.1-.3-.028-.48l3.316,1.1q15.984,5.295,31.981,10.533C1191.057,512.588,1190.674,512.518,1190.306,512.419Zm838.3-25.486c1.913-.169,3.727-.339,5.5-.508a1.653,1.653,0,0,1,.17.508Zm10.727-1.1c-.411.085-.836.155-1.247.226a1.388,1.388,0,0,0-.028-.24c.4-.1.807-.212,1.218-.3.057-.014.142.085.213.127C2039.434,485.7,2039.391,485.817,2039.334,485.831Zm9.763-5.846c-.963.254-1.941.424-2.919.593-.057,0-.142-.254-.326-.579,1.233-.325,2.3-.593,3.3-.847C2049.594,479.562,2049.4,479.915,2049.1,479.985Zm39.8-12.567c-.482.141-.978.254-1.474.381-.029-.1-.043-.184-.071-.268.864-.226,1.743-.438,2.607-.664.028.042.042.085.071.127C2089.652,467.137,2089.283,467.306,2088.9,467.419Zm5.739-1.751c.524-.1.892-.169,1.4-.268C2095.476,466.2,2095.476,466.2,2094.64,465.668Zm3.783-.2c-.042-.127-.085-.254-.142-.381l1.913-.381c.014.056.042.127.056.2C2099.642,465.089,2099.032,465.287,2098.423,465.47Zm10.032-2.287c-1.388.169-2.777.508-4.166.763,2.763-.861,5.5-1.92,8.473-1.737A15.905,15.905,0,0,1,2108.455,463.183Zm6.476-1.483c0-.028-.014-.042-.014-.071.241-.056.482-.127.723-.184a.105.105,0,0,1,.014.071C2115.412,461.573,2115.171,461.63,2114.931,461.7Zm3.443-.635-.127-.169c.2-.1.411-.212.624-.311C2118.714,460.74,2118.544,460.91,2118.374,461.065Zm.6-.494c.581.042,1.148.113,1.97.212C2120.046,461.15,2119.422,461.474,2118.969,460.571Zm11.322-1.638c.014-.042.014-.1.028-.155a1.825,1.825,0,0,1,.156.184C2130.418,458.947,2130.347,458.947,2130.291,458.933Zm.454,22.507c-.029-.071-.043-.141-.071-.212.312-.056.624-.127.935-.184.014.042.028.071.042.113C2131.339,481.256,2131.042,481.355,2130.744,481.44Zm4.6-1.172v-.155l.184.056Zm7.057-1.92c.425-.113.865-.226,1.375-.353C2143.54,479.039,2142.874,478.559,2142.406,478.348Zm7.269-1.2a.211.211,0,0,1-.184,0c-.028-.014,0-.113,0-.169.057,0,.127.014.2.014C2149.675,477.049,2149.689,477.147,2149.675,477.147Zm25.293-25.331a4.827,4.827,0,0,1-.454.268c-.043.028-.142-.056-.255-.1C2174.515,451.929,2174.741,451.873,2174.969,451.816Zm-21.907,24.7a2.946,2.946,0,0,1-.708.028l-.085-.3c.439-.113.893-.212,1.332-.325.042.085.071.169.114.254A2.86,2.86,0,0,1,2153.062,476.512Zm13.66-3.022c-2.82.409-5.5,1.581-8.389,1.567-.864,0-1.5.946-2.451.551,1.643-.875,8.984-2.768,11.888-2.612A4.161,4.161,0,0,1,2166.721,473.49Zm8.6-2.061c-.737.226-1.5.409-2.253.593-.666.169-1.346.325-2.026.438a4.361,4.361,0,0,1-2.012.1c.156-.282.213-.494.312-.522,1.743-.466,3.486-.96,5.257-1.356a15.385,15.385,0,0,1,2.324-.169C2176.64,471.415,2175.889,471.245,2175.323,471.429Zm3.642-20.078c-.1-.1-.3-.226-.283-.311.029-.127.2-.226.312-.339l.425.169C2179.262,451.026,2179.12,451.2,2178.964,451.35Zm6.547,17.989c-.071.028-.2-.127-.369-.254.283-.085.5-.169.723-.212.042-.014.114.085.17.141A2.922,2.922,0,0,1,2185.511,469.339Zm2.933-1.087c1.02-.494,1.856-1.144,3.075-.621a2.632,2.632,0,0,0,1.474-.042,8.089,8.089,0,0,1,2.735-.339c-2.253.466-4.506.932-6.759,1.37C2188.855,468.647,2188.713,468.45,2188.444,468.252Zm8.8,16.52a13.2,13.2,0,0,1-1.488.3c-.057-.155-.113-.325-.17-.494.524-.169,1.048-.367,1.587-.522.085,0,.269.212.283.339A.458.458,0,0,1,2197.243,484.772Z" transform="translate(-2.39 0.056)" fill="#53dc2e"/>
    <path id="Path_70" data-name="Path 70" d="M791.654,444.712l-.025.078,2.591.839.086-.059Z" transform="translate(204.838 6.571)" fill="#53dc2e"/>
    <path id="Path_71" data-name="Path 71" d="M736.323,458.77l-.346-.232-.412-.048a4.308,4.308,0,0,0,.469.349C736.078,458.863,736.224,458.795,736.323,458.77Z" transform="translate(181.599 12.247)" fill="#53dc2e"/>
    <path id="Path_72" data-name="Path 72" d="M782.022,429.7c-.261-.109-.521-.226-.788-.318-.061-.021-.152.044-.23.071.263.114.522.239.793.336C781.851,429.812,781.946,429.735,782.022,429.7Z" transform="translate(200.433 0.255)" fill="#53dc2e"/>
  </g>
</svg>